# xmcd
#
# Track frame offsets:
#	150
#	14058
#	28038
#	43081
#	54858
#	64259
#	81036
#	93134
#	116627
#	127651
#	138568
#	151614
#	163849
#	181083
#	192919
#	207453
#	223680
#	240331
#	251497
#	268249
#
# Disc length: 3706 seconds
#
# Revision: 0
# Processed by: cddbd v1.5.2PL0 Copyright (c) Steve Scherf et al.
# Submitted via: EZCDAudioConverter 2.0.5.1
#
DISCID=120e7814
DTITLE=Jacques Brel, leo Ferre et Georges Brassens - Jacques Brel, Georges Bra
DTITLE=ssens, Leo Ferre - CD 4
DYEAR=2014
DGENRE=Chanson francaise
TTITLE0=Jacques Brel - On n'oublie pas
TTITLE1=Georges Brassens - Aupres de mon arbre
TTITLE2=Leo Ferre - Paris canaille
TTITLE3=Jacques Brel - Les Flamandes
TTITLE4=Georges Brassens - J'ai rendez-vous avec vous
TTITLE5=Leo Ferre - Les temps difficiles
TTITLE6=Jacques Brel - Au printemps
TTITLE7=Georges Brassens - Les trompettes de la renommee
TTITLE8=Georges Brassens - Le parapluie
TTITLE9=Jacques Brel - Le diable (ca va)
TTITLE10=Leo Ferre - Le Pont Mirabeau
TTITLE11=Georges Brassens - La complainte des filles de joie
TTITLE12=Leo Ferre - Cannes La Braguette
TTITLE13=Jacques Brel - La dame patronesse
TTITLE14=Georges Brassens - Les amours d'antan
TTITLE15=Leo Ferre - La langue francaise
TTITLE16=Jacques Brel - Une ile
TTITLE17=Leo Ferre - Vingt ans
TTITLE18=Jacques Brel - Sur la Place (avec Simone Langlois)
TTITLE19=Georges Brassens - Maman, papa (avec Patachou)
EXTD=
EXTT0=
EXTT1=
EXTT2=
EXTT3=
EXTT4=
EXTT5=
EXTT6=
EXTT7=
EXTT8=
EXTT9=
EXTT10=
EXTT11=
EXTT12=
EXTT13=
EXTT14=
EXTT15=
EXTT16=
EXTT17=
EXTT18=
EXTT19=
PLAYORDER=
